<?xml version="1.0" standalone="no"?>
<!DOCTYPE svg PUBLIC "-//W3C//DTD SVG 20010904//EN"
 "http://www.w3.org/TR/2001/REC-SVG-20010904/DTD/svg10.dtd">
<svg version="1.0" xmlns="http://www.w3.org/2000/svg"
 width="512.000000pt" height="512.000000pt" viewBox="0 0 512.000000 512.000000"
 preserveAspectRatio="xMidYMid meet">

<g transform="translate(0.000000,512.000000) scale(0.100000,-0.100000)"
fill="#ffffff" stroke="none">
<path d="M3075 5110 c-153 -24 -328 -92 -465 -181 -84 -55 -254 -225 -309
-309 -94 -145 -158 -312 -180 -474 -7 -51 -11 -390 -11 -972 0 -830 -1 -894
-17 -894 -9 0 -55 18 -101 41 -152 73 -274 223 -316 385 -10 40 -16 105 -16
183 l0 121 -455 0 -455 0 0 -52 c1 -110 19 -316 35 -393 39 -190 125 -392 238
-560 79 -117 265 -303 382 -382 204 -138 404 -214 675 -257 l35 -6 17 -103
c100 -614 587 -1110 1208 -1232 47 -9 162 -19 258 -22 l172 -6 0 450 0 450
-137 5 c-160 6 -242 29 -349 99 -146 95 -251 264 -269 434 l-6 60 90 37 c219
88 456 251 646 442 345 347 542 752 607 1246 8 62 12 234 12 495 0 448 -5 492
-76 682 -132 350 -446 618 -822 699 -86 19 -308 26 -391 14z m278 -923 c24
-14 57 -45 73 -69 l29 -43 3 -369 c2 -298 0 -385 -13 -459 -42 -244 -154 -456
-335 -637 l-95 -95 -3 750 c-2 570 0 761 10 795 14 54 86 130 138 147 54 19
143 9 193 -20z"/>
</g>
</svg>
